<?xml version="1.0" encoding="UTF-8"?>
<svg width="700px" height="700px" version="1.1" viewBox="0 0 700 700" xmlns="http://www.w3.org/2000/svg" xmlns:xlink="http://www.w3.org/1999/xlink">
 <defs>
  <symbol id="l" overflow="visible">
   <path d="m37.516-2.25c-1.9297 1.0117-3.9453 1.7734-6.0469 2.2812-2.0938 0.50781-4.2812 0.76562-6.5625 0.76562-6.793 0-12.18-1.8984-16.156-5.7031-3.9688-3.8008-5.9531-8.957-5.9531-15.469 0-6.5195 1.9844-11.68 5.9531-15.484 3.9766-3.8008 9.3633-5.7031 16.156-5.7031 2.2812 0 4.4688 0.25781 6.5625 0.76562 2.1016 0.51172 4.1172 1.2656 6.0469 2.2656v8.4531c-1.9492-1.332-3.8711-2.3047-5.7656-2.9219-1.8984-0.625-3.8906-0.9375-5.9844-0.9375-3.7617 0-6.7188 1.2031-8.875 3.6094-2.1484 2.4062-3.2188 5.7266-3.2188 9.9531 0 4.2109 1.0703 7.5156 3.2188 9.9219 2.1562 2.4062 5.1133 3.6094 8.875 3.6094 2.0938 0 4.0859-0.30469 5.9844-0.92188 1.8945-0.625 3.8164-1.5977 5.7656-2.9219z"/>
  </symbol>
  <symbol id="d" overflow="visible">
   <path d="m27.453-22.281c-0.85547-0.40625-1.7109-0.70312-2.5625-0.89062-0.84375-0.19531-1.6953-0.29688-2.5469-0.29688-2.5234 0-4.4609 0.80859-5.8125 2.4219-1.3555 1.6172-2.0312 3.9297-2.0312 6.9375v14.109h-9.7969v-30.625h9.7969v5.0312c1.25-2.0078 2.6914-3.4727 4.3281-4.3906 1.6328-0.91406 3.5859-1.375 5.8594-1.375 0.33203 0 0.6875 0.015625 1.0625 0.046875 0.38281 0.023438 0.94141 0.078125 1.6719 0.17188z"/>
  </symbol>
  <symbol id="c" overflow="visible">
   <path d="m35.281-15.391v2.7812h-22.891c0.23828 2.3047 1.0664 4.0273 2.4844 5.1719 1.4258 1.1484 3.4141 1.7188 5.9688 1.7188 2.0508 0 4.1562-0.30078 6.3125-0.90625 2.1641-0.61328 4.3906-1.5391 6.6719-2.7812v7.5469c-2.3125 0.875-4.6328 1.5391-6.9531 1.9844-2.3125 0.44531-4.625 0.67188-6.9375 0.67188-5.543 0-9.8516-1.4062-12.922-4.2188-3.0742-2.8203-4.6094-6.7734-4.6094-11.859 0-5 1.5039-8.9258 4.5156-11.781 3.0195-2.8633 7.1758-4.2969 12.469-4.2969 4.8125 0 8.6602 1.4492 11.547 4.3438 2.8945 2.8984 4.3438 6.7734 4.3438 11.625zm-10.062-3.2656c0-1.8516-0.54688-3.3477-1.6406-4.4844-1.0859-1.1445-2.5-1.7188-4.25-1.7188-1.8984 0-3.4375 0.53906-4.625 1.6094-1.1797 1.0625-1.9141 2.5938-2.2031 4.5938z"/>
  </symbol>
  <symbol id="b" overflow="visible">
   <path d="m18.438-13.781c-2.043 0-3.5781 0.35156-4.6094 1.0469-1.0312 0.6875-1.5469 1.7031-1.5469 3.0469 0 1.2422 0.41016 2.2148 1.2344 2.9219 0.83203 0.69922 1.9883 1.0469 3.4688 1.0469 1.8438 0 3.3906-0.66016 4.6406-1.9844 1.2578-1.3203 1.8906-2.9727 1.8906-4.9531v-1.125zm14.953-3.6875v17.469h-9.875v-4.5469c-1.3125 1.8672-2.793 3.2266-4.4375 4.0781-1.6367 0.84375-3.6328 1.2656-5.9844 1.2656-3.168 0-5.7422-0.92578-7.7188-2.7812-1.9805-1.8516-2.9688-4.2539-2.9688-7.2031 0-3.5938 1.2344-6.2266 3.7031-7.9062 2.4688-1.6758 6.3477-2.5156 11.641-2.5156h5.7656v-0.76562c0-1.5508-0.60938-2.6875-1.8281-3.4062s-3.125-1.0781-5.7188-1.0781c-2.0938 0-4.0469 0.21484-5.8594 0.64062-1.8047 0.41797-3.4766 1.043-5.0156 1.875v-7.4688c2.0938-0.50781 4.1953-0.89453 6.3125-1.1562 2.1133-0.25781 4.2266-0.39062 6.3438-0.39062 5.5195 0 9.5039 1.0898 11.953 3.2656 2.457 2.1797 3.6875 5.7188 3.6875 10.625z"/>
  </symbol>
  <symbol id="h" overflow="visible">
   <path d="m15.391-39.328v8.7031h10.094v7h-10.094v12.984c0 1.4297 0.28125 2.3906 0.84375 2.8906 0.57031 0.5 1.6953 0.75 3.375 0.75h5.0312v7h-8.3906c-3.8672 0-6.6055-0.80469-8.2188-2.4219-1.6172-1.6133-2.4219-4.3516-2.4219-8.2188v-12.984h-4.875v-7h4.875v-8.7031z"/>
  </symbol>
  <symbol id="g" overflow="visible">
   <path d="m25.547-26.141v-16.406h9.8438v42.547h-9.8438v-4.4375c-1.3555 1.8125-2.8438 3.1406-4.4688 3.9844-1.6172 0.83203-3.4922 1.25-5.625 1.25-3.7734 0-6.8711-1.5-9.2969-4.5-2.4297-3-3.6406-6.8594-3.6406-11.578 0-4.7266 1.2109-8.5859 3.6406-11.578 2.4258-3 5.5234-4.5 9.2969-4.5 2.1133 0 3.9844 0.42188 5.6094 1.2656 1.6328 0.84375 3.1289 2.1641 4.4844 3.9531zm-6.4531 19.828c2.0938 0 3.6914-0.76562 4.7969-2.2969 1.1016-1.5312 1.6562-3.7539 1.6562-6.6719 0-2.9141-0.55469-5.1406-1.6562-6.6719-1.1055-1.5312-2.7031-2.2969-4.7969-2.2969-2.0859 0-3.6797 0.76562-4.7812 2.2969-1.1055 1.5312-1.6562 3.7578-1.6562 6.6719 0 2.918 0.55078 5.1406 1.6562 6.6719 1.1016 1.5312 2.6953 2.2969 4.7812 2.2969z"/>
  </symbol>
  <symbol id="f" overflow="visible">
   <path d="m21-6.3125c2.0938 0 3.6914-0.76562 4.7969-2.2969 1.1016-1.5312 1.6562-3.7539 1.6562-6.6719 0-2.9141-0.55469-5.1406-1.6562-6.6719-1.1055-1.5312-2.7031-2.2969-4.7969-2.2969s-3.7031 0.77344-4.8281 2.3125c-1.1172 1.5312-1.6719 3.75-1.6719 6.6562 0 2.8984 0.55469 5.1172 1.6719 6.6562 1.125 1.543 2.7344 2.3125 4.8281 2.3125zm-6.5-19.828c1.3438-1.7891 2.832-3.1094 4.4688-3.9531 1.6445-0.84375 3.5352-1.2656 5.6719-1.2656 3.7695 0 6.8672 1.5 9.2969 4.5 2.4258 2.9922 3.6406 6.8516 3.6406 11.578 0 4.7188-1.2148 8.5781-3.6406 11.578-2.4297 3-5.5273 4.5-9.2969 4.5-2.1367 0-4.0273-0.42188-5.6719-1.2656-1.6367-0.85156-3.125-2.1758-4.4688-3.9688v4.4375h-9.7969v-42.547h9.7969z"/>
  </symbol>
  <symbol id="a" overflow="visible">
   <path d="m0.6875-30.625h9.7812l8.2344 20.781 7-20.781h9.7969l-12.891 33.531c-1.293 3.4062-2.8047 5.7852-4.5312 7.1406-1.7188 1.3633-3.9922 2.0469-6.8125 2.0469h-5.6562v-6.4375h3.0625c1.6562 0 2.8594-0.26562 3.6094-0.79688 0.75781-0.52344 1.3516-1.4648 1.7812-2.8281l0.26562-0.85938z"/>
  </symbol>
  <symbol id="e" overflow="visible">
   <path d="m33.547-39.547v8.6406c-2.2422-1-4.4297-1.7539-6.5625-2.2656-2.125-0.50781-4.1367-0.76562-6.0312-0.76562-2.5234 0-4.3867 0.35156-5.5938 1.0469-1.1992 0.6875-1.7969 1.7617-1.7969 3.2188 0 1.0938 0.40625 1.9492 1.2188 2.5625 0.8125 0.60547 2.2852 1.125 4.4219 1.5625l4.4844 0.90625c4.5312 0.91797 7.7539 2.3086 9.6719 4.1719 1.9141 1.8555 2.875 4.4961 2.875 7.9219 0 4.5-1.3398 7.8516-4.0156 10.047-2.668 2.1992-6.7461 3.2969-12.234 3.2969-2.5859 0-5.1836-0.25-7.7969-0.75-2.6055-0.48828-5.2109-1.2188-7.8125-2.1875v-8.875c2.6016 1.3867 5.125 2.4297 7.5625 3.125 2.4375 0.69922 4.7852 1.0469 7.0469 1.0469 2.2891 0 4.0469-0.37891 5.2656-1.1406 1.2266-0.76953 1.8438-1.8633 1.8438-3.2812 0-1.2812-0.41797-2.2656-1.25-2.9531-0.83594-0.69531-2.4922-1.3164-4.9688-1.8594l-4.0625-0.90625c-4.0859-0.875-7.0742-2.2656-8.9688-4.1719-1.8867-1.9141-2.8281-4.5-2.8281-7.75 0-4.0625 1.3125-7.1875 3.9375-9.375s6.3984-3.2812 11.328-3.2812c2.2383 0 4.5391 0.17188 6.9062 0.51562 2.375 0.33594 4.8281 0.83594 7.3594 1.5z"/>
  </symbol>
  <symbol id="k" overflow="visible">
   <path d="m35.5-18.656v18.656h-9.8438v-14.219c0-2.6758-0.0625-4.5156-0.1875-5.5156-0.11719-1.0078-0.32031-1.75-0.60938-2.2188-0.38672-0.64453-0.90625-1.1445-1.5625-1.5-0.65625-0.35156-1.4023-0.53125-2.2344-0.53125-2.043 0-3.6484 0.79297-4.8125 2.375-1.168 1.5742-1.75 3.7578-1.75 6.5469v15.062h-9.7969v-42.547h9.7969v16.406c1.4688-1.7891 3.0312-3.1094 4.6875-3.9531 1.6641-0.84375 3.5-1.2656 5.5-1.2656 3.5391 0 6.2266 1.0859 8.0625 3.25 1.832 2.168 2.75 5.3203 2.75 9.4531z"/>
  </symbol>
  <symbol id="j" overflow="visible">
   <path d="m4.375-11.922v-18.703h9.8438v3.0625c0 1.6562-0.011719 3.7422-0.03125 6.25-0.011719 2.5-0.015625 4.1719-0.015625 5.0156 0 2.4609 0.0625 4.2305 0.1875 5.3125 0.125 1.0859 0.34375 1.875 0.65625 2.375 0.39453 0.63672 0.91406 1.125 1.5625 1.4688 0.65625 0.34375 1.3984 0.51562 2.2344 0.51562 2.0391 0 3.6445-0.78125 4.8125-2.3438 1.1641-1.5703 1.75-3.75 1.75-6.5312v-15.125h9.7969v30.625h-9.7969v-4.4375c-1.4805 1.793-3.043 3.1172-4.6875 3.9688-1.6484 0.84375-3.4648 1.2656-5.4531 1.2656-3.543 0-6.2422-1.082-8.0938-3.25-1.8438-2.1758-2.7656-5.332-2.7656-9.4688z"/>
  </symbol>
  <symbol id="i" overflow="visible">
   <path d="m4.7031-42.547h9.7969v42.547h-9.7969z"/>
  </symbol>
 </defs>
 <g>
  <path d="m551.6 285.6h-6.5898c-1.4844-35.422-4.8555-70.734-10.105-105.79l-0.125-0.78516c-0.84766-5.1602-1.7344-10.066-2.6641-14.719-0.36328-1.8477-0.73047-3.6914-1.1094-5.4766-0.46094-2.1328-0.92187-4.25-1.4023-6.2695-0.86719-3.6836-1.7695-7.207-2.7148-10.562-0.27734-0.97656-0.5625-1.9062-0.84375-2.8477-0.64062-2.1484-1.332-4.0625-2-6.0742-0.10938 0.67188-0.15234 1.3438-0.28516 2.0117l-0.42578 2.3203-17.074 85.297h-0.007813c-2.3086 11.41-8.4883 21.672-17.488 29.051-9.0039 7.3789-20.277 11.422-31.918 11.445h-0.44922v28c0 6.0039-3.1992 11.551-8.3984 14.551s-11.602 3-16.801 0c-5.1953-3-8.3984-8.5469-8.3984-14.551v-28h-145.6v28c0 6.0039-3.2031 11.551-8.3984 14.551-5.1992 3-11.602 3-16.801 0s-8.3984-8.5469-8.3984-14.551v-28h-0.44922c-11.641-0.023438-22.914-4.0664-31.918-11.445-9-7.3789-15.18-17.641-17.488-29.051l-17.52-87.762c-0.125-0.61328-0.16406-1.2383-0.26953-1.8516-0.66797 2.0117-1.3594 3.9258-2 6.0703-0.28125 0.9375-0.56641 1.8633-0.83984 2.832-0.94531 3.3594-1.8516 6.8828-2.7188 10.574-0.48047 2.0156-0.94141 4.1289-1.4023 6.2578-0.38281 1.7969-0.75 3.6523-1.1172 5.5156-0.92578 4.6367-1.8086 9.5273-2.6523 14.664l-0.13672 0.85156v-0.003907c-5.2461 35.043-8.6172 70.344-10.098 105.75h-6.5938c-16.328 0.019532-31.988 6.5156-43.535 18.062-11.547 11.547-18.043 27.203-18.062 43.535v100.8c0.019531 16.332 6.5156 31.988 18.062 43.535 11.547 11.551 27.207 18.047 43.535 18.066h7.7656c0.84766 2.4336 1.8867 4.8008 3.1016 7.0781l0.015625 0.023437v0.003906c3.3359 6.2305 7.9648 11.676 13.57 15.977 0.52734 0.41016 1.0156 0.86719 1.5625 1.2578 1.2812 0.90234 2.6367 1.668 4.0039 2.4492 1.2578 0.73047 2.5273 1.418 3.8516 2.0391 1.1914 0.54687 2.3906 1.0508 3.6289 1.5078 1.7617 0.64453 3.5625 1.1875 5.3867 1.6289 1.0234 0.25391 2.0195 0.55078 3.0703 0.74219h-0.003907c3.0195 0.57031 6.082 0.87109 9.1523 0.89062h292.99c3.0664-0.019531 6.125-0.32031 9.1367-0.89062 1.0586-0.19141 2.0625-0.49219 3.0938-0.74609 1.8008-0.43359 3.5742-0.96875 5.3125-1.6055 1.2773-0.46875 2.5117-0.98828 3.7383-1.5547 1.2305-0.57812 2.4141-1.2227 3.5859-1.8984v0.003906c1.4805-0.80469 2.918-1.6875 4.3125-2.6367 0.19531-0.14062 0.36719-0.30859 0.55859-0.45312 8.1523-5.9688 14.293-14.273 17.605-23.816h7.7617c16.328-0.019531 31.988-6.5156 43.535-18.066 11.547-11.547 18.043-27.203 18.062-43.535v-100.8c-0.019531-16.332-6.5156-31.988-18.062-43.535-11.547-11.547-27.207-18.043-43.535-18.062zm-398.04 34.25c-0.11719 3.5938-0.18359 7.457-0.28516 11.137-0.14062 4.9531-0.26562 9.9023-0.37891 14.852-0.046875 2.1641-0.12109 4.1875-0.16016 6.3711-0.039063 1.9492-0.074219 3.9141-0.10547 5.8867-0.019531 1.0781-0.019531 2.2344-0.039063 3.3164-0.16406 9.8711-0.27344 19.672-0.33594 29.344-0.003907 0.63672-0.019531 1.2227-0.019531 1.8633-0.003907 0.58594 0 1.1914-0.003907 1.7773 0 0.35937 0.003907 0.74609 0 1.1094-0.14453 28.781 0.10156 56.234 0.51562 80.496l-4.3555-0.003906c-7.4219-0.007812-14.539-2.9609-19.789-8.2109-5.25-5.2461-8.2031-12.367-8.2109-19.789v-100.8c0.007812-7.4219 2.9609-14.539 8.2109-19.789s12.367-8.2031 19.789-8.2109h5.1836zm319.63 128.15c0 8.9102-3.5391 17.457-9.8398 23.758-6.3008 6.3008-14.848 9.8438-23.758 9.8438h-179.2c-8.9102 0-17.457-3.543-23.758-9.8438-6.3008-6.3008-9.8398-14.848-9.8398-23.758v-44.801c0-8.9102 3.5391-17.457 9.8398-23.758 6.3008-6.3008 14.848-9.8398 23.758-9.8398h179.2c8.9102 0 17.457 3.5391 23.758 9.8398 6.3008 6.3008 9.8398 14.848 9.8398 23.758zm106.4 0h0.003906c-0.007812 7.4219-2.9609 14.543-8.2109 19.789-5.25 5.25-12.367 8.2031-19.789 8.2109h-4.3594c0.41797-24.379 0.66406-51.988 0.51562-80.93-0.003906-0.96484 0-1.9414-0.007812-2.8906-0.003906-0.45703-0.011719-0.87109-0.015625-1.3281-0.0625-9.7383-0.17578-19.605-0.33984-29.543-0.015625-0.97656-0.019531-2.0195-0.035156-2.9922-0.035156-2.0938-0.074219-4.1797-0.11328-6.2539-0.039063-2.0625-0.10938-3.9766-0.15234-6.0195-0.11328-5.0234-0.23828-10.047-0.38281-15.074-0.10156-3.6875-0.16797-7.5625-0.28516-11.168l-0.011719-0.60156h5.1875c7.4219 0.007812 14.539 2.9609 19.789 8.2109s8.2031 12.367 8.2109 19.789zm-94.574-342.51c-5.3047-6.5195-13.27-10.305-21.68-10.293h-29.344v-39.199c-0.011719-10.395-4.1484-20.355-11.496-27.703-7.3477-7.3516-17.312-11.484-27.703-11.496h-89.602c-10.391 0.011719-20.355 4.1445-27.703 11.496-7.3477 7.3477-11.484 17.309-11.496 27.703v39.199h-29.344c-8.3711 0-16.301 3.7461-21.617 10.215-5.3125 6.4648-7.4492 14.973-5.8281 23.184l0.51562 2.793 16.965 84.719c0.76953 3.8008 2.8281 7.2188 5.8281 9.6797 2.9961 2.457 6.7539 3.8047 10.633 3.8125h0.44922v-16.801c0-6.0039 3.1992-11.551 8.3984-14.551s11.602-3 16.801 0c5.1953 3 8.3984 8.5469 8.3984 14.551v16.801h145.6v-16.801c0-6.0039 3.2031-11.551 8.3984-14.551 5.1992-3 11.602-3 16.801 0s8.3984 8.5469 8.3984 14.551v16.801h0.44922c3.8789-0.007812 7.6367-1.3555 10.633-3.8164 3-2.457 5.0586-5.875 5.8281-9.6758l17.414-87.184 0.066406-0.32812h-0.003906c1.6562-8.1758-0.46094-16.664-5.7617-23.105zm-185.42-43.891v-5.6016c0.003907-3.0898 2.5078-5.5977 5.5977-5.6016h89.602c3.0898 0.003906 5.5938 2.5117 5.5977 5.6016v39.199h-100.8z"/>
  <use x="70" y="728" xlink:href="#l"/>
  <use x="111.097656" y="728" xlink:href="#d"/>
  <use x="138.714844" y="728" xlink:href="#c"/>
  <use x="176.695312" y="728" xlink:href="#b"/>
  <use x="214.484375" y="728" xlink:href="#h"/>
  <use x="241.253906" y="728" xlink:href="#c"/>
  <use x="279.234375" y="728" xlink:href="#g"/>
  <use x="338.816406" y="728" xlink:href="#f"/>
  <use x="378.902344" y="728" xlink:href="#a"/>
  <use x="434.902344" y="728" xlink:href="#e"/>
  <use x="475.234375" y="728" xlink:href="#a"/>
  <use x="511.738281" y="728" xlink:href="#b"/>
  <use x="549.527344" y="728" xlink:href="#k"/>
  <use x="589.394531" y="728" xlink:href="#d"/>
  <use x="617.011719" y="728" xlink:href="#j"/>
  <use x="656.878906" y="728" xlink:href="#i"/>
 </g>
</svg>
