<?xml version="1.0" encoding="UTF-8"?>
<svg width="700pt" height="700pt" version="1.1" viewBox="0 0 700 700" xmlns="http://www.w3.org/2000/svg">
 <g>
  <path d="m542.5 96.25h-92.398l-6.8242-20.648c-6.4766-19.074-26.773-31.852-50.574-31.852h-85.398c-23.801 0-44.102 12.773-50.574 31.852l-6.8242 20.648h-22.398c0-9.6758-7.8242-17.5-17.5-17.5h-35c-9.6758 0-17.5 7.8242-17.5 17.5-28.875 0-52.5 23.625-52.5 52.5v315c0 28.875 23.625 52.5 52.5 52.5h385c28.875 0 52.5-23.625 52.5-52.5l-0.007812-315c0-28.875-23.625-52.5-52.5-52.5zm-192.5 96.25c70 0 126.88 56.875 126.88 126.88s-56.875 126.88-126.88 126.88-126.88-56.875-126.88-126.88 56.875-126.88 126.88-126.88zm157.5 8.75h-35c-9.625 0-17.5-7.875-17.5-17.5s7.875-17.5 17.5-17.5h35c9.625 0 17.5 7.875 17.5 17.5s-7.875 17.5-17.5 17.5zm-217.52-114.62c1.0508-3.3242 7.6992-7.875 17.324-7.875h85.398c9.625 0 16.273 4.5508 17.324 7.875l3.1484 9.625h-126.35l3.1484-9.625z"/>
  <path d="m441.88 319.38c0 50.742-41.133 91.875-91.875 91.875s-91.875-41.133-91.875-91.875 41.133-91.875 91.875-91.875 91.875 41.133 91.875 91.875"/>
 </g>
</svg>
