<?xml version="1.0" encoding="UTF-8"?>
<svg width="700pt" height="700pt" version="1.1" viewBox="0 0 700 700" xmlns="http://www.w3.org/2000/svg" xmlns:xlink="http://www.w3.org/1999/xlink">
 <defs>
  <symbol id="s" overflow="visible">
   <path d="m1.4062-0.078125c-0.074219 0.03125-0.15234 0.058594-0.23438 0.078125-0.074219 0.019531-0.15234 0.03125-0.23438 0.03125-0.26172 0-0.46484-0.066406-0.60938-0.20312-0.14844-0.14453-0.21875-0.34375-0.21875-0.59375 0-0.23828 0.070313-0.42578 0.21875-0.5625 0.14453-0.14453 0.34766-0.21875 0.60938-0.21875 0.082031 0 0.16016 0.011719 0.23438 0.03125 0.082031 0.011719 0.16016 0.039063 0.23438 0.078125v0.3125c-0.074219-0.050781-0.14844-0.085938-0.21875-0.10938-0.074219-0.019531-0.14844-0.03125-0.21875-0.03125-0.14844 0-0.26172 0.046875-0.34375 0.14062-0.074219 0.085938-0.10938 0.20312-0.10938 0.35938s0.035156 0.28125 0.10938 0.375c0.082031 0.09375 0.19531 0.14062 0.34375 0.14062 0.070312 0 0.14453-0.007812 0.21875-0.03125 0.070312-0.03125 0.14453-0.070312 0.21875-0.125z"/>
  </symbol>
  <symbol id="d" overflow="visible">
   <path d="m1.0312-0.82812c-0.03125-0.019531-0.0625-0.03125-0.09375-0.03125-0.03125-0.007813-0.070312-0.015625-0.10938-0.015625-0.09375 0-0.16797 0.03125-0.21875 0.09375-0.042969 0.054688-0.0625 0.13672-0.0625 0.25v0.53125h-0.375v-1.1406h0.375v0.1875c0.039063-0.070313 0.09375-0.125 0.15625-0.15625 0.0625-0.039063 0.13281-0.0625 0.21875-0.0625h0.03125 0.078125z"/>
  </symbol>
  <symbol id="a" overflow="visible">
   <path d="m1.3125-0.57812v0.10938h-0.84375c0 0.085938 0.023438 0.14844 0.078125 0.1875 0.0625 0.042969 0.14062 0.0625 0.23438 0.0625 0.070312 0 0.14844-0.007812 0.23438-0.03125 0.082031-0.019531 0.16406-0.054688 0.25-0.10938v0.29688c-0.085937 0.03125-0.17188 0.054688-0.26562 0.0625-0.085938 0.019531-0.16797 0.03125-0.25 0.03125-0.21094 0-0.37109-0.050781-0.48438-0.15625-0.11719-0.10156-0.17188-0.25391-0.17188-0.45312 0-0.1875 0.050781-0.33203 0.15625-0.4375 0.11328-0.10156 0.26953-0.15625 0.46875-0.15625 0.1875 0 0.33203 0.058594 0.4375 0.17188 0.10156 0.10547 0.15625 0.24609 0.15625 0.42188zm-0.375-0.125c0-0.0625-0.023438-0.11328-0.0625-0.15625-0.03125-0.039063-0.085938-0.0625-0.15625-0.0625-0.074219 0-0.13281 0.023437-0.17188 0.0625-0.042969 0.03125-0.070313 0.085937-0.078125 0.15625z"/>
  </symbol>
  <symbol id="l" overflow="visible">
   <path d="m0.6875-0.51562c-0.074219 0-0.13281 0.015625-0.17188 0.046875-0.042969 0.023438-0.0625 0.058594-0.0625 0.10938 0 0.042969 0.015625 0.078125 0.046875 0.10938 0.03125 0.023438 0.078125 0.03125 0.14062 0.03125s0.11328-0.019531 0.15625-0.0625c0.050781-0.050781 0.078125-0.11328 0.078125-0.1875v-0.046875zm0.5625-0.14062v0.65625h-0.375v-0.17188c-0.042969 0.074219-0.09375 0.125-0.15625 0.15625s-0.14062 0.046875-0.23438 0.046875c-0.11719 0-0.21094-0.03125-0.28125-0.09375-0.074219-0.070312-0.10938-0.16406-0.10938-0.28125 0-0.13281 0.039062-0.23438 0.125-0.29688 0.09375-0.0625 0.23828-0.09375 0.4375-0.09375h0.21875v-0.03125c0-0.050781-0.023438-0.085937-0.0625-0.10938-0.042969-0.03125-0.11719-0.046875-0.21875-0.046875-0.074219 0-0.14844 0.011719-0.21875 0.03125-0.0625 0.011719-0.125 0.03125-0.1875 0.0625v-0.28125c0.082031-0.019531 0.16016-0.035156 0.23438-0.046875 0.082031-0.007812 0.16016-0.015625 0.23438-0.015625 0.20703 0 0.35938 0.042969 0.45312 0.125 0.09375 0.085937 0.14062 0.21484 0.14062 0.39062z"/>
  </symbol>
  <symbol id="c" overflow="visible">
   <path d="m0.57812-1.4688v0.32812h0.375v0.25h-0.375v0.5c0 0.054687 0.007813 0.089844 0.03125 0.10938 0.019531 0.011719 0.0625 0.015625 0.125 0.015625h0.1875v0.26562h-0.3125c-0.14844 0-0.25-0.03125-0.3125-0.09375s-0.09375-0.16016-0.09375-0.29688v-0.5h-0.17188v-0.25h0.17188v-0.32812z"/>
  </symbol>
  <symbol id="k" overflow="visible">
   <path d="m0.95312-0.98438v-0.60938h0.375v1.5938h-0.375v-0.17188c-0.054687 0.074219-0.10938 0.125-0.17188 0.15625-0.054688 0.03125-0.12109 0.046875-0.20312 0.046875-0.14844 0-0.26562-0.054688-0.35938-0.17188-0.085938-0.11328-0.125-0.25781-0.125-0.4375 0-0.17578 0.039062-0.31641 0.125-0.42188 0.09375-0.11328 0.21094-0.17188 0.35938-0.17188 0.082031 0 0.14844 0.015625 0.20312 0.046875 0.0625 0.03125 0.11719 0.078125 0.17188 0.14062zm-0.23438 0.75c0.070312 0 0.12891-0.023437 0.17188-0.078125 0.039063-0.0625 0.0625-0.14844 0.0625-0.26562 0-0.10156-0.023437-0.17969-0.0625-0.23438-0.042969-0.0625-0.10156-0.09375-0.17188-0.09375-0.085938 0-0.14844 0.03125-0.1875 0.09375-0.042969 0.054688-0.0625 0.13281-0.0625 0.23438 0 0.11719 0.019531 0.20312 0.0625 0.26562 0.039062 0.054688 0.10156 0.078125 0.1875 0.078125z"/>
  </symbol>
  <symbol id="j" overflow="visible">
   <path d="m0.78125-0.23438c0.082031 0 0.14453-0.023437 0.1875-0.078125 0.039062-0.0625 0.0625-0.14844 0.0625-0.26562 0-0.10156-0.023438-0.17969-0.0625-0.23438-0.042969-0.0625-0.10547-0.09375-0.1875-0.09375-0.074219 0-0.13281 0.03125-0.17188 0.09375-0.042969 0.054688-0.0625 0.13281-0.0625 0.23438 0 0.11719 0.019531 0.20312 0.0625 0.26562 0.039063 0.054688 0.097656 0.078125 0.17188 0.078125zm-0.23438-0.75c0.050781-0.0625 0.10156-0.10938 0.15625-0.14062 0.0625-0.03125 0.13281-0.046875 0.21875-0.046875 0.13281 0 0.25 0.058594 0.34375 0.17188 0.09375 0.10547 0.14062 0.24609 0.14062 0.42188 0 0.17969-0.046875 0.32422-0.14062 0.4375-0.09375 0.11719-0.21094 0.17188-0.34375 0.17188-0.085937 0-0.15625-0.015625-0.21875-0.046875-0.054687-0.03125-0.10547-0.082031-0.15625-0.15625v0.17188h-0.375v-1.5938h0.375z"/>
  </symbol>
  <symbol id="i" overflow="visible">
   <path d="m0.03125-1.1406h0.35938l0.3125 0.76562 0.26562-0.76562h0.35938l-0.48438 1.25c-0.054688 0.125-0.10938 0.21094-0.17188 0.26562-0.0625 0.050781-0.14844 0.078125-0.25 0.078125h-0.21875v-0.23438h0.125c0.0625 0 0.10156-0.011719 0.125-0.03125 0.03125-0.023438 0.054687-0.058594 0.078125-0.10938v-0.03125z"/>
  </symbol>
  <symbol id="h" overflow="visible">
   <path d="m0.17188-1.1406h0.375v1.1406h-0.375zm0-0.45312h0.375v0.29688h-0.375z"/>
  </symbol>
  <symbol id="g" overflow="visible">
   <path d="m1.0938-1.1094v0.29688c-0.042969-0.03125-0.089844-0.050781-0.14062-0.0625-0.054687-0.019531-0.10547-0.03125-0.15625-0.03125-0.10547 0-0.1875 0.03125-0.25 0.09375-0.054687 0.054688-0.078125 0.13281-0.078125 0.23438 0 0.11719 0.023438 0.20312 0.078125 0.26562 0.0625 0.054688 0.14453 0.078125 0.25 0.078125 0.050781 0 0.10156-0.003906 0.15625-0.015625 0.050781-0.019531 0.097656-0.046875 0.14062-0.078125v0.29688c-0.054688 0.023438-0.10938 0.035156-0.17188 0.046875-0.054687 0.0078125-0.10938 0.015625-0.17188 0.015625-0.21094 0-0.37109-0.050781-0.48438-0.15625-0.11719-0.10156-0.17188-0.25391-0.17188-0.45312 0-0.1875 0.054688-0.33203 0.17188-0.4375 0.11328-0.10156 0.27344-0.15625 0.48438-0.15625 0.0625 0 0.11719 0.007813 0.17188 0.015625 0.0625 0.011719 0.11719 0.027344 0.17188 0.046875z"/>
  </symbol>
  <symbol id="b" overflow="visible">
   <path d="m0.71875-0.90625c-0.085938 0-0.14844 0.03125-0.1875 0.09375-0.042969 0.054688-0.0625 0.13281-0.0625 0.23438 0 0.11719 0.019531 0.20312 0.0625 0.26562 0.039062 0.054688 0.10156 0.078125 0.1875 0.078125 0.082031 0 0.14453-0.023437 0.1875-0.078125 0.039062-0.0625 0.0625-0.14844 0.0625-0.26562 0-0.10156-0.023438-0.17969-0.0625-0.23438-0.042969-0.0625-0.10547-0.09375-0.1875-0.09375zm0-0.26562c0.19531 0 0.34766 0.054687 0.45312 0.15625 0.11328 0.10547 0.17188 0.25 0.17188 0.4375s-0.058594 0.33984-0.17188 0.45312c-0.10547 0.10547-0.25781 0.15625-0.45312 0.15625-0.19922 0-0.35547-0.050781-0.46875-0.15625-0.10547-0.11328-0.15625-0.26562-0.15625-0.45312s0.050781-0.33203 0.15625-0.4375c0.11328-0.10156 0.26953-0.15625 0.46875-0.15625z"/>
  </symbol>
  <symbol id="f" overflow="visible">
   <path d="m1.3281-0.70312v0.70312h-0.375v-0.53125-0.20312c0-0.039063-0.011719-0.070313-0.03125-0.09375-0.011719-0.019531-0.03125-0.035156-0.0625-0.046875-0.023437-0.007812-0.046875-0.015625-0.078125-0.015625-0.074219 0-0.13281 0.03125-0.17188 0.09375-0.042969 0.054687-0.0625 0.13281-0.0625 0.23438v0.5625h-0.375v-1.1406h0.375v0.15625c0.050781-0.0625 0.10938-0.10938 0.17188-0.14062s0.12891-0.046875 0.20312-0.046875c0.13281 0 0.23438 0.042969 0.29688 0.125 0.070312 0.085937 0.10938 0.19922 0.10938 0.34375z"/>
  </symbol>
  <symbol id="e" overflow="visible">
   <path d="m0.15625-0.45312v-0.6875h0.375v0.10938 0.23438 0.1875 0.20312c0.007812 0.042969 0.019531 0.070312 0.03125 0.078125 0.007812 0.03125 0.023438 0.054687 0.046875 0.0625 0.03125 0.011719 0.0625 0.015625 0.09375 0.015625 0.070313 0 0.12891-0.023438 0.17188-0.078125 0.050781-0.0625 0.078125-0.14453 0.078125-0.25v-0.5625h0.35938v1.1406h-0.35938v-0.17188c-0.0625 0.074219-0.125 0.125-0.1875 0.15625-0.054687 0.03125-0.12109 0.046875-0.20312 0.046875-0.125 0-0.22656-0.039062-0.29688-0.125-0.074219-0.082031-0.10938-0.20312-0.10938-0.35938z"/>
  </symbol>
  <symbol id="r" overflow="visible">
   <path d="m0.92188-1.5938v0.25h-0.1875c-0.054687 0-0.089844 0.011719-0.10938 0.03125-0.023438 0.011719-0.03125 0.042969-0.03125 0.09375v0.078125h0.3125v0.25h-0.3125v0.89062h-0.375v-0.89062h-0.17188v-0.25h0.17188v-0.078125c0-0.125 0.035156-0.21875 0.10938-0.28125 0.070313-0.0625 0.17969-0.09375 0.32812-0.09375z"/>
  </symbol>
  <symbol id="q" overflow="visible">
   <path d="m1.2344-0.95312c0.050781-0.070313 0.10938-0.125 0.17188-0.15625 0.0625-0.039063 0.12891-0.0625 0.20312-0.0625 0.13281 0 0.23438 0.042969 0.29688 0.125 0.070312 0.085937 0.10938 0.19922 0.10938 0.34375v0.70312h-0.375v-0.59375c0.007813-0.007812 0.015625-0.019531 0.015625-0.03125v-0.046875c0-0.070313-0.015625-0.125-0.046875-0.15625-0.023437-0.039063-0.058594-0.0625-0.10938-0.0625-0.074219 0-0.13281 0.03125-0.17188 0.09375-0.03125 0.054687-0.046875 0.13281-0.046875 0.23438v0.5625h-0.375v-0.59375c0-0.125-0.011719-0.20312-0.03125-0.23438-0.023438-0.039063-0.058594-0.0625-0.10938-0.0625-0.074219 0-0.13281 0.03125-0.17188 0.09375-0.03125 0.054687-0.046875 0.13281-0.046875 0.23438v0.5625h-0.375v-1.1406h0.375v0.15625c0.039063-0.0625 0.085937-0.10938 0.14062-0.14062 0.0625-0.03125 0.12891-0.046875 0.20312-0.046875 0.082031 0 0.14844 0.023437 0.20312 0.0625 0.0625 0.03125 0.10938 0.085937 0.14062 0.15625z"/>
  </symbol>
  <symbol id="p" overflow="visible">
   <path d="m1.3281-0.70312v0.70312h-0.375v-0.53125-0.20312c0-0.039063-0.011719-0.070313-0.03125-0.09375-0.011719-0.019531-0.03125-0.035156-0.0625-0.046875-0.023437-0.007812-0.046875-0.015625-0.078125-0.015625-0.074219 0-0.13281 0.03125-0.17188 0.09375-0.042969 0.054687-0.0625 0.13281-0.0625 0.23438v0.5625h-0.375v-1.5938h0.375v0.60938c0.050781-0.0625 0.10938-0.10938 0.17188-0.14062s0.12891-0.046875 0.20312-0.046875c0.13281 0 0.23438 0.042969 0.29688 0.125 0.070312 0.085937 0.10938 0.19922 0.10938 0.34375z"/>
  </symbol>
  <symbol id="o" overflow="visible">
   <path d="m0.1875-1.5312h0.4375l0.5625 1.0469v-1.0469h0.375v1.5312h-0.4375l-0.5625-1.0469v1.0469h-0.375z"/>
  </symbol>
  <symbol id="n" overflow="visible">
   <path d="m0.1875-1.5312h0.65625c0.19531 0 0.34766 0.046875 0.45312 0.14062 0.10156 0.085937 0.15625 0.20312 0.15625 0.35938 0 0.16797-0.054687 0.29297-0.15625 0.375-0.10547 0.085938-0.25781 0.125-0.45312 0.125h-0.26562v0.53125h-0.39062zm0.39062 0.29688v0.42188h0.21875c0.082031 0 0.14453-0.015625 0.1875-0.046875 0.039063-0.039063 0.0625-0.097656 0.0625-0.17188 0-0.0625-0.023437-0.10938-0.0625-0.14062-0.042969-0.039063-0.10547-0.0625-0.1875-0.0625z"/>
  </symbol>
  <symbol id="m" overflow="visible">
   <path d="m0.17188-1.1406h0.375v1.125c0 0.14453-0.039063 0.25781-0.10938 0.34375-0.074219 0.082031-0.18359 0.125-0.32812 0.125h-0.17188v-0.23438h0.0625c0.0625 0 0.10156-0.015625 0.125-0.046875 0.03125-0.03125 0.046875-0.09375 0.046875-0.1875zm0-0.45312h0.375v0.29688h-0.375z"/>
  </symbol>
 </defs>
 <g>
  <path d="m279.85 456.43-0.14062-103.57-50.16 86.914c-27.59 47.801-50.422 87.281-50.746 87.734-0.48828 0.6875-1.9688 0.019532-9.0664-4.1016-4.6641-2.707-8.5-5.125-8.5273-5.375-0.027343-0.24609 23.926-41.973 53.227-92.719l53.273-92.27-3.6289-3.9219c-13.227-14.285-12.867-35.801 0.82422-49.492 14.047-14.047 36.184-14.047 50.227 0 13.605 13.605 14.043 35.074 1.0078 49.301-2.7812 3.0352-3.3594 3.9727-2.9141 4.7109 4.1602 6.8438 106.33 184.32 106.24 184.54-0.33984 0.78125-17.082 10.059-17.441 9.668-0.22656-0.24609-23.199-39.938-51.055-88.199l-50.641-87.75-0.28125 208.11h-20.055zm241.72-118.2c-25.43-14.68-46.238-26.906-46.238-27.168 0-1.0859 35.16-61.48 35.723-61.355 1.0938 0.24219 92.184 53.008 92.184 53.402 0 0.21094-7.7695 13.844-17.27 30.301-9.5 16.457-17.469 30.277-17.715 30.715-0.34766 0.62109-10.629-5.082-46.684-25.895zm-215.95-83.477c-73.414-42.426-133.77-77.312-134.11-77.531-0.41016-0.25781 11.766-21.852 34.84-61.801 19.508-33.773 35.629-61.566 35.828-61.766 0.25781-0.25781 266.86 153.1 268.46 154.43 0.21484 0.17969-69.824 121.69-70.906 123.02-0.51953 0.64062-24.477-13-134.12-76.355zm-186.15-86.863c-12.414-7.1875-22.637-13.266-22.719-13.508-0.10937-0.32812 87.922-153.46 88.75-154.38 0.25391-0.28125 46.273 26.496 46.258 26.918-0.03125 0.9375-88.648 154.04-89.16 154.04-0.30469 0-10.715-5.8828-23.129-13.07z"/>
  <use x="96.757813" y="566.269531" xlink:href="#s"/>
  <use x="98.292969" y="566.269531" xlink:href="#d"/>
  <use x="99.324219" y="566.269531" xlink:href="#a"/>
  <use x="100.742188" y="566.269531" xlink:href="#l"/>
  <use x="102.152344" y="566.269531" xlink:href="#c"/>
  <use x="103.148438" y="566.269531" xlink:href="#a"/>
  <use x="104.566406" y="566.269531" xlink:href="#k"/>
  <use x="106.792969" y="566.269531" xlink:href="#j"/>
  <use x="108.289062" y="566.269531" xlink:href="#i"/>
  <use x="110.378906" y="566.269531" xlink:href="#h"/>
  <use x="111.09375" y="566.269531" xlink:href="#g"/>
  <use x="112.332031" y="566.269531" xlink:href="#b"/>
  <use x="113.769531" y="566.269531" xlink:href="#f"/>
  <use x="115.257813" y="566.269531" xlink:href="#a"/>
  <use x="116.675781" y="566.269531" xlink:href="#e"/>
  <use x="96.757813" y="568.359375" xlink:href="#r"/>
  <use x="97.667969" y="568.359375" xlink:href="#d"/>
  <use x="98.699219" y="568.359375" xlink:href="#b"/>
  <use x="100.132812" y="568.359375" xlink:href="#q"/>
  <use x="103.039062" y="568.359375" xlink:href="#c"/>
  <use x="104.039062" y="568.359375" xlink:href="#p"/>
  <use x="105.527344" y="568.359375" xlink:href="#a"/>
  <use x="107.671875" y="568.359375" xlink:href="#o"/>
  <use x="109.421875" y="568.359375" xlink:href="#b"/>
  <use x="110.855469" y="568.359375" xlink:href="#e"/>
  <use x="112.34375" y="568.359375" xlink:href="#f"/>
  <use x="114.5625" y="568.359375" xlink:href="#n"/>
  <use x="116.09375" y="568.359375" xlink:href="#d"/>
  <use x="117.125" y="568.359375" xlink:href="#b"/>
  <use x="118.558594" y="568.359375" xlink:href="#m"/>
  <use x="119.273438" y="568.359375" xlink:href="#a"/>
  <use x="120.691406" y="568.359375" xlink:href="#g"/>
  <use x="121.933594" y="568.359375" xlink:href="#c"/>
 </g>
</svg>
