<svg width="40" height="41" viewBox="0 0 40 41" fill="none" xmlns="http://www.w3.org/2000/svg">
<g clip-path="url(#clip0_2_237)">
<path d="M18.3212 13.4477C17.4749 13.4477 16.6939 13.1166 16.0599 12.4885C14.6646 11.1062 14.2926 8.71702 14.2926 7.52305C14.2926 7.17579 14.3358 6.83089 14.4263 6.46947C14.5159 6.10845 14.8872 5.8894 15.2427 5.97906C15.6037 6.06951 15.8232 6.43486 15.7335 6.79589C15.6698 7.04916 15.6391 7.28708 15.6391 7.52305C15.6391 8.8413 16.1095 10.6413 17.0077 11.5317C17.3947 11.9143 17.8234 12.1007 18.3205 12.1007C18.326 12.1007 18.3323 12.1007 18.3386 12.1007C20.3678 12.0819 21.0506 8.94905 21.0506 7.52304C21.0506 7.28708 21.0199 7.04915 20.9562 6.79588C20.8665 6.43486 21.086 6.06951 21.447 5.97906C21.8033 5.89136 22.1737 6.10884 22.2634 6.46947C22.3539 6.83088 22.3971 7.17578 22.3971 7.52304C22.3971 9.96762 21.1418 13.4217 18.3511 13.4473C18.3409 13.4477 18.3307 13.4477 18.3212 13.4477Z" fill="#14A9EE"/>
<path d="M17.5913 40.2967H15.6509C14.8518 40.2967 14.2013 39.6565 14.2013 38.8699V17.9569C14.2013 17.5848 14.5026 17.2832 14.8746 17.2832C15.2466 17.2832 15.5479 17.5848 15.5479 17.9569V38.8699C15.5479 38.9037 15.5841 38.9501 15.6509 38.9501H17.5913C17.6299 38.9501 17.6716 38.9085 17.6716 38.8699V28.7101C17.6716 28.3381 17.9728 28.0368 18.3449 28.0368C18.7169 28.0368 19.0181 28.3381 19.0181 28.7101V38.8699C19.0181 39.6565 18.3779 40.2967 17.5913 40.2967Z" fill="#14A9EE"/>
<path d="M7.84212 19.2469C7.70762 19.2469 7.57155 19.2063 7.45357 19.1226C7.14996 18.9075 7.07839 18.4871 7.29311 18.1838L8.80092 16.0602C8.90474 15.9139 9.06205 15.8152 9.23824 15.7857C9.41442 15.7566 9.5969 15.7982 9.74163 15.9021L11.1535 16.9108C11.284 16.746 11.4185 16.5691 11.557 16.387C12.4694 15.1851 13.6059 13.6891 15.2813 13.5637C15.7933 13.5192 16.1732 13.2868 16.465 12.2694C16.5665 11.9119 16.9385 11.7039 17.298 11.8073C17.6551 11.9096 17.8619 12.2824 17.7597 12.6399C17.6102 13.1625 17.1548 14.7529 15.3898 14.9063C14.3114 14.9873 13.4179 16.1636 12.629 17.2018C12.3317 17.5931 12.0509 17.9632 11.763 18.2759C11.5326 18.5256 11.1543 18.5649 10.8758 18.3679L9.50802 17.3906L8.3927 18.9625C8.26135 19.1477 8.05291 19.2469 7.84212 19.2469Z" fill="#14A9EE"/>
<path d="M11.1307 22.1913C10.4251 22.1913 9.80848 21.916 9.34756 21.3937L7.3285 19.0082C7.08861 18.7242 7.124 18.2991 7.40794 18.0592C7.69189 17.8189 8.11583 17.8539 8.3573 18.1382L10.3661 20.5128C10.5628 20.7354 10.809 20.8447 11.1307 20.8447C11.4327 20.8447 11.6734 20.7307 11.8661 20.4971L14.3586 17.5243C14.5985 17.2384 15.0241 17.203 15.3072 17.441C15.5927 17.6797 15.6297 18.1048 15.3906 18.3895L12.902 21.3576C12.4607 21.894 11.8299 22.1913 11.1307 22.1913Z" fill="#14A9EE"/>
<path d="M8.02538 18.9728C7.06108 18.9728 6.2533 18.2441 6.14633 17.2778C6.03778 16.3147 6.66545 15.4306 7.60537 15.2218C8.55866 15.0094 9.51274 15.5305 9.82578 16.435C9.9477 16.7866 9.76129 17.1701 9.4097 17.2916C9.05733 17.4147 8.67428 17.2271 8.55315 16.8755C8.46349 16.6144 8.18898 16.4708 7.89796 16.5369C7.6266 16.5971 7.45356 16.8456 7.48502 17.1284C7.51727 17.4167 7.74458 17.6255 8.02538 17.6255C8.39741 17.6255 8.69866 17.9271 8.69866 18.2992C8.69866 18.6712 8.39742 18.9728 8.02538 18.9728Z" fill="#14A9EE"/>
<path d="M24.8063 20.1823C24.4343 20.1823 24.133 19.8811 24.133 19.5091V16.9292C24.133 15.8654 23.267 15.0002 22.2036 15.0002C21.8316 15.0002 21.5304 14.6985 21.5304 14.3265C21.5304 13.9545 21.8316 13.6528 22.2036 13.6528C24.0103 13.6528 25.4796 15.1225 25.4796 16.9292V19.5091C25.4796 19.8811 25.1784 20.1823 24.8063 20.1823Z" fill="#14A9EE"/>
<path d="M21.0616 40.2967H19.0984C18.3118 40.2967 17.6716 39.6565 17.6716 38.8699V28.7101C17.6716 28.3381 17.9728 28.0368 18.3449 28.0368C18.7169 28.0368 19.0181 28.3381 19.0181 28.7101V38.8699C19.0181 38.9085 19.0598 38.9501 19.0984 38.9501H21.0616C21.1001 38.9501 21.1418 38.9085 21.1418 38.8699V17.9569C21.1418 17.5848 21.4431 17.2832 21.8151 17.2832C22.1871 17.2832 22.4884 17.5848 22.4884 17.9569V38.8699C22.4884 39.6565 21.8481 40.2967 21.0616 40.2967Z" fill="#14A9EE"/>
<path d="M24.0072 28.0818H21.8151C21.443 28.0818 21.1418 27.7806 21.1418 27.4085C21.1418 27.0365 21.443 26.7353 21.8151 26.7353H24.0072C24.0693 26.7353 24.133 26.6715 24.133 26.6094V19.5321C24.133 19.16 24.4343 18.8584 24.8063 18.8584C25.1783 18.8584 25.4796 19.16 25.4796 19.5321V26.6094C25.4796 27.4211 24.8189 28.0818 24.0072 28.0818Z" fill="#14A9EE"/>
<path d="M22.7511 30.5703H21.8151C21.4431 30.5703 21.1418 30.269 21.1418 29.897C21.1418 29.525 21.4431 29.2237 21.8151 29.2237H22.7511C23.072 29.2237 23.3339 28.9728 23.3339 28.6645V27.4084C23.3339 27.0364 23.6352 26.7351 24.0072 26.7351C24.3792 26.7351 24.6805 27.0364 24.6805 27.4084V28.6645C24.6805 29.7153 23.8153 30.5703 22.7511 30.5703Z" fill="#14A9EE"/>
<path d="M22.2036 15.0002C19.7952 15.0002 19.3776 14.1676 18.9764 12.7967L18.9324 12.6457C18.827 12.289 19.0299 11.9142 19.387 11.8088C19.7441 11.7014 20.1185 11.9071 20.2239 12.2634L20.2695 12.4187C20.5755 13.4644 20.6305 13.6528 22.2036 13.6528C22.5757 13.6528 22.8769 13.9545 22.8769 14.3265C22.8769 14.6985 22.5757 15.0002 22.2036 15.0002Z" fill="#14A9EE"/>
<path d="M22.2493 7.32905C22.1863 7.32905 22.1211 7.32001 22.0573 7.30113C19.6387 6.58262 17.0714 6.58223 14.6308 7.30152C14.2705 7.40535 13.8993 7.20242 13.7947 6.84572C13.6893 6.48902 13.893 6.11463 14.2501 6.00923C16.9401 5.21639 19.7732 5.21678 22.4412 6.00962C22.7975 6.1158 23.0012 6.49059 22.895 6.84729C22.8077 7.13989 22.5395 7.32905 22.2493 7.32905Z" fill="#14A9EE"/>
<path d="M23.3677 8.76741C23.1066 8.76741 22.858 8.61442 22.7487 8.35919C22.6024 8.01704 22.7605 7.62141 23.1027 7.47472C23.8774 7.14241 24.2243 6.76683 24.2243 6.54149C24.2243 5.94096 22.1486 4.77216 18.3449 4.77216C14.5411 4.77216 12.4654 5.94096 12.4654 6.54149C12.4654 6.76683 12.8123 7.14241 13.587 7.47472C13.9292 7.62142 14.0873 8.01705 13.941 8.35919C13.7947 8.70134 13.3991 8.85983 13.0569 8.71274C11.3706 7.98991 11.1189 7.04212 11.1189 6.54149C11.1189 4.49529 14.7535 3.4248 18.3448 3.4248C21.9362 3.4248 25.5708 4.49529 25.5708 6.54149C25.5708 7.04212 25.3191 7.98991 23.6328 8.71274C23.5463 8.74971 23.4566 8.76741 23.3677 8.76741Z" fill="#14A9EE"/>
<path d="M22.0196 5.18314C21.6586 5.18314 21.3597 4.89683 21.3471 4.53306C21.2905 2.91317 19.9722 1.64447 18.3448 1.64447C16.7175 1.64447 15.3992 2.91317 15.3426 4.53306C15.33 4.89683 15.0311 5.18314 14.6701 5.18314C14.6615 5.18314 14.6536 5.18274 14.6457 5.18274C14.2745 5.16977 13.9835 4.8579 13.996 4.48586C14.0778 2.13724 15.9884 0.297119 18.3449 0.297119C20.7013 0.297119 22.6119 2.13724 22.6937 4.48586C22.7062 4.8579 22.4152 5.16976 22.044 5.18274C22.0361 5.18274 22.0282 5.18314 22.0196 5.18314Z" fill="#14A9EE"/>
<path d="M7.36311 40.2968C6.99108 40.2968 6.68983 39.9955 6.68983 39.6235V20.8793C6.68983 20.5073 6.99108 20.2061 7.36311 20.2061C7.73515 20.2061 8.0364 20.5073 8.0364 20.8793V39.6235C8.0364 39.9955 7.73515 40.2968 7.36311 40.2968Z" fill="#14A9EE"/>
<path d="M7.36311 16.5528C6.99108 16.5528 6.68983 16.2512 6.68983 15.8792V7.34042C6.68983 6.96839 6.99108 6.66675 7.36311 6.66675C7.73515 6.66675 8.0364 6.96839 8.0364 7.34042V15.8792C8.0364 16.2512 7.73515 16.5528 7.36311 16.5528Z" fill="#14A9EE"/>
<path d="M0.673548 10.7766C0.409268 10.7766 0.15836 10.6197 0.0513918 10.3601C-0.0909722 10.016 0.0726277 9.62232 0.416348 9.48034L7.10591 6.718C7.44806 6.57524 7.8429 6.73963 7.98527 7.08335C8.12763 7.42746 7.96403 7.82113 7.62031 7.9631L0.930748 10.7254C0.846588 10.7601 0.759284 10.7766 0.673548 10.7766Z" fill="#14A9EE"/>
<path d="M7.36311 13.5392C7.27738 13.5392 7.19007 13.5227 7.10591 13.488L0.416348 10.7253C0.0726277 10.5833 -0.0909722 10.1893 0.0513918 9.84555C0.192972 9.50183 0.586244 9.33863 0.930748 9.4802L7.62031 12.2429C7.96403 12.3849 8.12763 12.779 7.98527 13.1227C7.8783 13.3823 7.62739 13.5392 7.36311 13.5392Z" fill="#14A9EE"/>
<path d="M37.3855 40.2967H29.4178C29.0458 40.2967 28.7445 39.9955 28.7445 39.6234V36.7006C28.7445 36.3286 29.0458 36.0273 29.4178 36.0273H37.3855C37.7576 36.0273 38.0588 36.3286 38.0588 36.7006V39.6234C38.0588 39.9955 37.7576 40.2967 37.3855 40.2967ZM30.0911 38.9501H36.7122V37.3739H30.0911V38.9501Z" fill="#14A9EE"/>
<path d="M33.4135 37.374C33.0414 37.374 32.7402 37.0727 32.7402 36.7007V16.8153C32.7402 16.4432 33.0414 16.1416 33.4135 16.1416C33.7855 16.1416 34.0867 16.4432 34.0867 16.8153V36.7007C34.0868 37.0727 33.7855 37.374 33.4135 37.374Z" fill="#14A9EE"/>
<path d="M37.089 17.489H29.0757C28.7036 17.489 28.4024 17.1874 28.4024 16.8154V12.7057C28.4024 12.3336 28.7036 12.032 29.0757 12.032H37.089C37.2573 12.032 37.4201 12.0953 37.5444 12.2097L39.7821 14.2646C39.9213 14.392 40 14.5717 40 14.7605C40 14.9493 39.9213 15.129 39.7821 15.2564L37.5444 17.3113C37.4201 17.4257 37.2573 17.489 37.089 17.489ZM29.749 16.1417H36.8263L38.3309 14.7605L36.8263 13.3793H29.749V16.1417Z" fill="#14A9EE"/>
<path d="M33.4135 7.23793C33.0414 7.23793 32.7402 6.93629 32.7402 6.56425V4.71469C32.7402 4.34266 33.0414 4.04102 33.4135 4.04102C33.7855 4.04102 34.0867 4.34266 34.0867 4.71469V6.56425C34.0868 6.93629 33.7855 7.23793 33.4135 7.23793Z" fill="#14A9EE"/>
<path d="M37.7513 11.3473H29.7372C29.5681 11.3473 29.406 11.284 29.2817 11.1695L27.0448 9.11507C26.9056 8.98765 26.8269 8.80792 26.8269 8.61915C26.8269 8.43077 26.9056 8.25065 27.0448 8.12323L29.2817 6.06838C29.406 5.95394 29.5681 5.89062 29.7372 5.89062H37.7513C38.1233 5.89062 38.4245 6.19226 38.4245 6.5643V10.6736C38.4246 11.0456 38.1233 11.3473 37.7513 11.3473ZM29.9999 9.99993H37.078V7.23798H29.9999L28.496 8.61915L29.9999 9.99993Z" fill="#14A9EE"/>
</g>
<defs>
<clipPath id="clip0_2_237">
<rect width="40" height="40" fill="white" transform="translate(0 0.296875)"/>
</clipPath>
</defs>
</svg>
