<svg width="40" height="41" viewBox="0 0 40 41" fill="none" xmlns="http://www.w3.org/2000/svg">
<g clip-path="url(#clip0_2_219)">
<path d="M24.8569 0.5H0.832813V40.5H30.8322V6.47656L24.8569 0.5ZM24.9997 3L28.3322 6.33313H24.9997V3ZM2.49969 38.8325V2.16688H23.3322V8H29.1672V38.8325H2.49969Z" fill="#14A9EE"/>
<path d="M24.9997 29.6675H19.9997C19.5395 29.6675 19.1666 30.0398 19.1666 30.5C19.1666 30.9601 19.5395 31.3325 19.9997 31.3325H24.9997C25.4599 31.3325 25.8322 30.9601 25.8322 30.5C25.8322 30.0398 25.4599 29.6675 24.9997 29.6675Z" fill="#14A9EE"/>
<path d="M24.9997 15.5H6.66657C6.20579 15.5 5.83282 15.8729 5.83282 16.3331C5.83282 16.7934 6.20571 17.1669 6.66657 17.1669H24.9997C25.4599 17.1669 25.8322 16.7934 25.8322 16.3331C25.8322 15.8729 25.4599 15.5 24.9997 15.5Z" fill="#14A9EE"/>
<path d="M24.9997 20.5H6.66657C6.20579 20.5 5.83282 20.8729 5.83282 21.3331C5.83282 21.7939 6.20571 22.1675 6.66657 22.1675H24.9997C25.4599 22.1675 25.8322 21.794 25.8322 21.3331C25.8322 20.8729 25.4599 20.5 24.9997 20.5Z" fill="#14A9EE"/>
<path d="M6.66657 12.1669H15.8328C16.2931 12.1669 16.6666 11.7934 16.6666 11.3331C16.6666 10.8729 16.2931 10.5 15.8328 10.5H6.66657C6.20579 10.5 5.83282 10.8729 5.83282 11.3331C5.83282 11.7934 6.20579 12.1669 6.66657 12.1669Z" fill="#14A9EE"/>
<path d="M9.99969 25.5C7.69868 25.5 5.83282 27.3652 5.83282 29.6675C5.83282 31.0298 6.48774 32.2408 7.49969 33V37.1675L9.99969 36.3325L12.4997 37.1675V33C13.5116 32.2407 14.1666 31.0298 14.1666 29.6675C14.1666 27.3652 12.3007 25.5 9.99969 25.5ZM10.8328 34.8542L10.5264 34.7529L9.99969 34.5771L9.47235 34.7529L9.16657 34.8542V33.7495C9.43571 33.8044 9.71407 33.8324 9.99969 33.8324C10.2853 33.8324 10.5637 33.8044 10.8328 33.7495V34.8542ZM9.99969 32.1675C8.62094 32.1675 7.49969 31.0445 7.49969 29.6675C7.49969 28.2881 8.62094 27.1675 9.99969 27.1675C11.3784 27.1675 12.4997 28.2881 12.4997 29.6675C12.4997 31.0445 11.3785 32.1675 9.99969 32.1675Z" fill="#14A9EE"/>
<path d="M39.1672 10.5C39.1672 8.6586 37.6743 7.16626 35.8322 7.16626C33.9914 7.16626 32.4997 8.6586 32.4997 10.5V33H33.5336L32.4997 36.6109L35.8322 38.8326L39.1672 36.6109L38.132 33H39.1672V10.5ZM34.1672 10.5C34.1672 9.58079 34.9142 8.83313 35.8322 8.83313C36.7526 8.83313 37.4997 9.58079 37.4997 10.5V31.3325H34.1672V10.5ZM37.2287 35.9004L35.8322 36.8306L34.437 35.9004L35.267 33H36.3986L37.2287 35.9004Z" fill="#14A9EE"/>
<path d="M9.99969 28.8325C9.53946 28.8325 9.16656 29.206 9.16656 29.6675C9.16656 30.1265 9.53946 30.5 9.99969 30.5C10.4599 30.5 10.8328 30.1265 10.8328 29.6675C10.8328 29.2061 10.4599 28.8325 9.99969 28.8325Z" fill="#14A9EE"/>
</g>
<defs>
<clipPath id="clip0_2_219">
<rect width="40" height="40" fill="white" transform="translate(0 0.5)"/>
</clipPath>
</defs>
</svg>
