<svg width="40" height="41" viewBox="0 0 40 41" fill="none" xmlns="http://www.w3.org/2000/svg">
<g clip-path="url(#clip0_2_269)">
<path fill-rule="evenodd" clip-rule="evenodd" d="M36.455 13.1838C34.8925 12.7738 31.2188 12.7788 25.845 12.6363C26.0988 11.4638 26.1575 10.4062 26.1575 8.52875C26.1575 4.04375 22.89 0.09375 20 0.09375C17.9587 0.09375 16.2763 1.7625 16.25 3.815C16.2225 6.3325 15.4438 10.68 11.25 12.885C10.9425 13.0475 10.0625 13.4812 9.93375 13.5375L10 13.5938C9.34375 13.0275 8.43375 12.5938 7.5 12.5938H3.75C1.6825 12.5938 0 14.2762 0 16.3438V36.3438C0 38.4113 1.6825 40.0938 3.75 40.0938H7.5C8.9875 40.0938 10.2325 39.195 10.835 37.935C10.85 37.94 10.8763 37.9475 10.8938 37.95C10.9763 37.9725 11.0738 37.9963 11.1925 38.0275C11.215 38.0337 11.2262 38.0362 11.25 38.0425C11.97 38.2212 13.3563 38.5525 16.3188 39.2337C16.9538 39.3787 20.3088 40.0938 23.7838 40.0938H30.6175C32.7 40.0938 34.2013 39.2925 35.095 37.6838C35.1075 37.6588 35.395 37.0975 35.63 36.3387C35.8063 35.7675 35.8713 34.9588 35.6588 34.1387C37.0013 33.2163 37.4338 31.8213 37.715 30.9137C38.1863 29.425 38.045 28.3063 37.7175 27.505C38.4725 26.7925 39.1162 25.7062 39.3875 24.0475C39.5563 23.02 39.375 21.9625 38.9012 21.0825C39.6087 20.2875 39.9313 19.2875 39.9688 18.3625L39.9837 18.1012C39.9925 17.9375 40 17.8363 40 17.4762C40 15.8975 38.9062 13.8837 36.455 13.1838ZM8.75 36.3438C8.75 37.035 8.19125 37.5938 7.5 37.5938H3.75C3.05875 37.5938 2.5 37.035 2.5 36.3438V16.3438C2.5 15.6525 3.05875 15.0938 3.75 15.0938H7.5C8.19125 15.0938 8.75 15.6525 8.75 16.3438V36.3438ZM37.4712 18.2625C37.4463 18.88 37.1875 20.0938 35 20.0938C33.125 20.0938 32.5 20.0938 32.5 20.0938C32.1538 20.0938 31.875 20.3738 31.875 20.7188C31.875 21.0637 32.1538 21.3438 32.5 21.3438C32.5 21.3438 33.0475 21.3438 34.9225 21.3438C36.7975 21.3438 37.0438 22.8988 36.9225 23.6488C36.7675 24.5812 36.33 26.3438 34.2188 26.3438C32.11 26.3438 31.25 26.3438 31.25 26.3438C30.9037 26.3438 30.625 26.6225 30.625 26.9688C30.625 27.3125 30.9037 27.5938 31.25 27.5938C31.25 27.5938 32.735 27.5938 33.7113 27.5938C35.8213 27.5938 35.635 29.2025 35.3325 30.1625C34.9338 31.4237 34.69 32.5938 32.0312 32.5938C31.1325 32.5938 29.9925 32.5938 29.9925 32.5938C29.6462 32.5938 29.3675 32.8725 29.3675 33.2188C29.3675 33.5625 29.6462 33.8438 29.9925 33.8438C29.9925 33.8438 30.8587 33.8438 31.9525 33.8438C33.32 33.8438 33.3838 35.1375 33.2412 35.6012C33.085 36.1087 32.9 36.485 32.8925 36.5025C32.515 37.1838 31.9062 37.5938 30.6175 37.5938H23.7838C20.3512 37.5938 16.9463 36.815 16.8588 36.795C11.6663 35.5988 11.3925 35.5063 11.0662 35.4137C11.0662 35.4137 10.0087 35.235 10.0087 34.3125L10 17.0475C10 16.4613 10.3737 15.9312 10.9925 15.745C11.07 15.715 11.175 15.6825 11.25 15.6512C16.96 13.2863 18.6987 8.10125 18.75 3.84375C18.7575 3.245 19.2188 2.59375 20 2.59375C21.3213 2.59375 23.6575 5.24625 23.6575 8.52875C23.6575 11.4925 23.5375 12.005 22.5 15.0938C35 15.0938 34.9125 15.2738 36.015 15.5625C37.3825 15.9537 37.5 17.0863 37.5 17.4762C37.5 17.905 37.4875 17.8425 37.4712 18.2625Z" fill="#14A9EE"/>
<path fill-rule="evenodd" clip-rule="evenodd" d="M5.625 32.5938C4.59 32.5938 3.75 33.4337 3.75 34.4688C3.75 35.5038 4.59 36.3438 5.625 36.3438C6.66 36.3438 7.5 35.5038 7.5 34.4688C7.5 33.4337 6.66 32.5938 5.625 32.5938ZM5.625 35.0938C5.28125 35.0938 5 34.8125 5 34.4688C5 34.125 5.28125 33.8438 5.625 33.8438C5.96875 33.8438 6.25 34.125 6.25 34.4688C6.25 34.8125 5.96875 35.0938 5.625 35.0938Z" fill="#14A9EE"/>
</g>
<defs>
<clipPath id="clip0_2_269">
<rect width="40" height="40" fill="white" transform="translate(0 0.09375)"/>
</clipPath>
</defs>
</svg>
